REM DIRINDEX 1\2,1\3,1\4,1\5
REM DIRNAME "folder01","folder02","folder03","folder04","folder05"
TITLE ""
FILE "P1Q_t_1178-1187.mp3" MP3
  TRACK 01 AUDIO
    TITLE "3:cjc173_4496"
    INDEX 01 00:00:00
  TRACK 02 AUDIO
    TITLE "0:"
    INDEX 01 00:01:14
  TRACK 03 AUDIO
    TITLE "4:cjc173_4497"
    INDEX 01 00:01:33
  TRACK 04 AUDIO
    TITLE "0:"
    INDEX 01 00:06:11
  TRACK 05 AUDIO
    TITLE "5:cjc173_4498"
    INDEX 01 00:06:32
  TRACK 06 AUDIO
    TITLE "0:"
    INDEX 01 00:10:20
  TRACK 07 AUDIO
    TITLE "3:cjc173_4499"
    INDEX 01 00:10:69
  TRACK 08 AUDIO
    TITLE "0:"
    INDEX 01 00:12:10
  TRACK 09 AUDIO
    TITLE "4:cjc173_4500"
    INDEX 01 00:12:31
  TRACK 10 AUDIO
    TITLE "0:"
    INDEX 01 00:14:03
  TRACK 11 AUDIO
    TITLE "5:cjc173_4501"
    INDEX 01 00:14:20
  TRACK 12 AUDIO
    TITLE "0:"
    INDEX 01 00:18:22
  TRACK 13 AUDIO
    TITLE "3:cjc173_4502"
    INDEX 01 00:18:69
  TRACK 14 AUDIO
    TITLE "0:"
    INDEX 01 00:20:05
  TRACK 15 AUDIO
    TITLE "4:cjc173_4503"
    INDEX 01 00:20:29
  TRACK 16 AUDIO
    TITLE "0:"
    INDEX 01 00:22:69
  TRACK 17 AUDIO
    TITLE "5:cjc173_4504"
    INDEX 01 00:23:11
  TRACK 18 AUDIO
    TITLE "0:"
    INDEX 01 00:27:31
  TRACK 19 AUDIO
    TITLE "3:cjc173_4505"
    INDEX 01 00:28:03
  TRACK 20 AUDIO
    TITLE "0:"
    INDEX 01 00:29:30
  TRACK 21 AUDIO
    TITLE "4:cjc173_4506"
    INDEX 01 00:29:49
  TRACK 22 AUDIO
    TITLE "0:"
    INDEX 01 00:32:08
  TRACK 23 AUDIO
    TITLE "5:cjc173_4507"
    INDEX 01 00:32:28
  TRACK 24 AUDIO
    TITLE "0:"
    INDEX 01 00:37:70
  TRACK 25 AUDIO
    TITLE "3:cjc173_4508"
    INDEX 01 00:38:42
  TRACK 26 AUDIO
    TITLE "0:"
    INDEX 01 00:39:59
  TRACK 27 AUDIO
    TITLE "4:cjc173_4509"
    INDEX 01 00:40:04
  TRACK 28 AUDIO
    TITLE "0:"
    INDEX 01 00:42:64
  TRACK 29 AUDIO
    TITLE "5:cjc173_4510"
    INDEX 01 00:43:08
  TRACK 30 AUDIO
    TITLE "0:"
    INDEX 01 00:46:57
  TRACK 31 AUDIO
    TITLE "3:cjc173_4511"
    INDEX 01 00:47:27
  TRACK 32 AUDIO
    TITLE "0:"
    INDEX 01 00:48:45
  TRACK 33 AUDIO
    TITLE "4:cjc173_4512"
    INDEX 01 00:48:66
  TRACK 34 AUDIO
    TITLE "0:"
    INDEX 01 00:51:49
  TRACK 35 AUDIO
    TITLE "5:cjc173_4513"
    INDEX 01 00:51:68
  TRACK 36 AUDIO
    TITLE "0:"
    INDEX 01 00:57:42
  TRACK 37 AUDIO
    TITLE "3:cjc173_4514"
    INDEX 01 00:58:12
  TRACK 38 AUDIO
    TITLE "0:"
    INDEX 01 00:59:54
  TRACK 39 AUDIO
    TITLE "4:cjc173_4515"
    INDEX 01 00:59:74
  TRACK 40 AUDIO
    TITLE "0:"
    INDEX 01 01:01:12
  TRACK 41 AUDIO
    TITLE "5:cjc173_4516"
    INDEX 01 01:01:33
  TRACK 42 AUDIO
    TITLE "0:"
    INDEX 01 01:06:27
  TRACK 43 AUDIO
    TITLE "3:cjc173_4517"
    INDEX 01 01:06:72
  TRACK 44 AUDIO
    TITLE "0:"
    INDEX 01 01:08:20
  TRACK 45 AUDIO
    TITLE "4:cjc173_4518"
    INDEX 01 01:08:41
  TRACK 46 AUDIO
    TITLE "0:"
    INDEX 01 01:11:55
  TRACK 47 AUDIO
    TITLE "5:cjc173_4519"
    INDEX 01 01:12:00
  TRACK 48 AUDIO
    TITLE "0:"
    INDEX 01 01:16:19
  TRACK 49 AUDIO
    TITLE "3:cjc173_4520"
    INDEX 01 01:16:64
  TRACK 50 AUDIO
    TITLE "0:"
    INDEX 01 01:17:74
  TRACK 51 AUDIO
    TITLE "4:cjc173_4521"
    INDEX 01 01:18:20
  TRACK 52 AUDIO
    TITLE "0:"
    INDEX 01 01:20:49
  TRACK 53 AUDIO
    TITLE "5:cjc173_4522"
    INDEX 01 01:20:68
  TRACK 54 AUDIO
    TITLE "0:"
    INDEX 01 01:23:64
  TRACK 55 AUDIO
    TITLE "3:cjc173_4523"
    INDEX 01 01:24:37
  TRACK 56 AUDIO
    TITLE "0:"
    INDEX 01 01:25:58
  TRACK 57 AUDIO
    TITLE "4:cjc173_4524"
    INDEX 01 01:26:04
  TRACK 58 AUDIO
    TITLE "0:"
    INDEX 01 01:29:00
  TRACK 59 AUDIO
    TITLE "5:cjc173_4525"
    INDEX 01 01:29:20
  TRACK 60 AUDIO
    TITLE "0:"
    INDEX 01 01:33:43
